<svg preserveAspectRatio="none" width="100%" height="100%" overflow="visible" style="display: block;" viewBox="0 0 16 16" fill="none" xmlns="http://www.w3.org/2000/svg">
<g id="Frame 24859">
<path id="Arrow 4" d="M7.3 12.8C7.3 13.1866 7.6134 13.5 8 13.5C8.3866 13.5 8.7 13.1866 8.7 12.8H8H7.3ZM8.49497 2.70502C8.22161 2.43166 7.77839 2.43166 7.50503 2.70502L3.05025 7.1598C2.77689 7.43316 2.77689 7.87638 3.05025 8.14975C3.32362 8.42311 3.76684 8.42311 4.0402 8.14975L8 4.18995L11.9598 8.14975C12.2332 8.42311 12.6764 8.42311 12.9497 8.14975C13.2231 7.87638 13.2231 7.43316 12.9497 7.1598L8.49497 2.70502ZM8 12.8H8.7L8.7 3.2H8H7.3L7.3 12.8H8Z" fill="var(--stroke-0, #FF4842)"/>
</g>
</svg>
