<svg preserveAspectRatio="none" width="100%" height="100%" overflow="visible" style="display: block;" viewBox="0 0 26 26" fill="none" xmlns="http://www.w3.org/2000/svg">
<g id="Bookmark ">
<path id="Vector" opacity="0" d="M0 0H26V26H0V0Z" fill="var(--fill-0, white)"/>
<path id="Vector_2" d="M6.5976 22.815C6.31028 22.815 6.03473 22.7009 5.83157 22.4977C5.6284 22.2945 5.51427 22.019 5.51427 21.7317L5.35177 5.85C5.33872 5.52754 5.38956 5.20568 5.50135 4.90294C5.61314 4.60019 5.78368 4.32254 6.00316 4.08594C6.22264 3.84934 6.48674 3.65847 6.78025 3.52431C7.07376 3.39014 7.3909 3.31533 7.71343 3.30416L18.1026 3.25C18.4256 3.25564 18.7442 3.32485 19.0404 3.45367C19.3367 3.5825 19.6046 3.76841 19.8289 4.0008C20.0533 4.23319 20.2296 4.5075 20.3479 4.80806C20.4662 5.10862 20.5242 5.42954 20.5184 5.7525L20.6701 21.6342C20.672 21.824 20.6239 22.011 20.5307 22.1764C20.4376 22.3418 20.3026 22.4799 20.1393 22.5767C19.9746 22.6717 19.7878 22.7218 19.5976 22.7218C19.4074 22.7218 19.2206 22.6717 19.0559 22.5767L12.8809 19.1533L7.1501 22.6525C6.9804 22.7473 6.7916 22.8028 6.5976 22.815V22.815ZM12.8376 16.8025C13.0258 16.8028 13.2114 16.8474 13.3793 16.9325L18.4818 19.76L18.3518 5.73083C18.3518 5.51417 18.2109 5.3625 18.1243 5.37333L7.72427 5.47083C7.6376 5.47083 7.51843 5.61167 7.51843 5.82833L7.64843 19.8033L12.2851 16.9542C12.4535 16.8577 12.6436 16.8056 12.8376 16.8025V16.8025Z" fill="var(--fill-0, #6B7280)"/>
</g>
</svg>
