<svg preserveAspectRatio="none" width="100%" height="100%" overflow="visible" style="display: block;" viewBox="0 0 24 24" fill="none" xmlns="http://www.w3.org/2000/svg">
<g id="Fule Icon">
<path id="Icon" fill-rule="evenodd" clip-rule="evenodd" d="M16.5966 4.06641C16.5965 3.47743 16.1182 3 15.5292 3H7.13955C6.55063 3.0001 6.07324 3.47749 6.07314 4.06641V19.3828H5.73558C5.32933 19.3828 5 19.7121 5 20.1184V20.2644C5 20.6707 5.32933 21 5.73558 21H7.13955H15.5292H16.7259C17.1322 21 17.4615 20.6707 17.4615 20.2644V20.1184C17.4615 19.7121 17.1322 19.3828 16.7259 19.3828H16.5966V15.094H16.7692C16.974 15.0967 17.0603 15.149 17.15 15.3576V16.2014C17.15 17.5549 19.3826 17.5549 19.3826 16.2014V16.0784H19.3999V9.82055H18.6038V16.0784H18.6384V16.2014C18.5346 16.6936 17.9461 16.6057 17.8596 16.2014V15.2873C17.8596 14.6897 17.5134 14.4084 17.0288 14.3908H16.5966V4.06641ZM7.23623 15.8955C7.23628 15.7381 7.36396 15.6104 7.52139 15.6104H11.1542C11.3116 15.6104 11.4393 15.7381 11.4394 15.8955V17.8691C11.4392 18.0265 11.3116 18.1543 11.1542 18.1543H7.52139C7.36402 18.1543 7.23637 18.0265 7.23623 17.8691V15.8955ZM12.9608 17.6367C12.9608 17.3747 13.1735 17.1623 13.4354 17.1621H14.9794C15.2413 17.1624 15.454 17.3747 15.454 17.6367C15.4538 17.8985 15.2412 18.1111 14.9794 18.1113H13.4354C13.1736 18.1111 12.961 17.8986 12.9608 17.6367ZM12.9608 16.0898C12.9608 15.8279 13.1735 15.6155 13.4354 15.6152H14.9794C15.2413 15.6155 15.454 15.8279 15.454 16.0898C15.4538 16.3517 15.2412 16.5642 14.9794 16.5645H13.4354C13.1736 16.5642 12.961 16.3517 12.9608 16.0898ZM6.69424 4.5957C6.69433 4.18953 7.0234 3.86035 7.42959 3.86035H15.2763C15.6824 3.86046 16.0115 4.1896 16.0116 4.5957V9.14648C16.0116 9.55266 15.6824 9.8827 15.2763 9.88281H7.42959C7.02334 9.88281 6.69424 9.55273 6.69424 9.14648V4.5957ZM17.3412 3.96785C17.5041 3.80243 17.7682 3.80251 17.9311 3.96785L19.3998 5.46101V9.82039H18.3774C17.7378 9.82012 17.2192 9.3018 17.2192 8.66218V6.97273L18.6996 5.94539L17.3412 4.56746C17.1783 4.40203 17.1784 4.13328 17.3412 3.96785Z" fill="var(--fill-0, #6B7280)"/>
</g>
</svg>
