<svg preserveAspectRatio="none" width="100%" height="100%" overflow="visible" style="display: block;" viewBox="0 0 20 20" fill="none" xmlns="http://www.w3.org/2000/svg">
<g id="Info">
<path id="Vector" d="M10 5.83333C10.4583 5.83333 10.8333 6.20833 10.8333 6.66667V10C10.8333 10.4583 10.4583 10.8333 10 10.8333C9.54167 10.8333 9.16667 10.4583 9.16667 10V6.66667C9.16667 6.20833 9.54167 5.83333 10 5.83333ZM9.99167 1.66667C5.39167 1.66667 1.66667 5.4 1.66667 10C1.66667 14.6 5.39167 18.3333 9.99167 18.3333C14.6 18.3333 18.3333 14.6 18.3333 10C18.3333 5.4 14.6 1.66667 9.99167 1.66667ZM10 16.6667C6.31667 16.6667 3.33333 13.6833 3.33333 10C3.33333 6.31667 6.31667 3.33333 10 3.33333C13.6833 3.33333 16.6667 6.31667 16.6667 10C16.6667 13.6833 13.6833 16.6667 10 16.6667ZM10.8333 14.1667H9.16667V12.5H10.8333V14.1667Z" fill="var(--fill-0, #9CA3AF)"/>
</g>
</svg>
