<svg preserveAspectRatio="none" width="100%" height="100%" overflow="visible" style="display: block;" viewBox="0 0 20 20" fill="none" xmlns="http://www.w3.org/2000/svg">
<g id="Frame" clip-path="url(#clip0_0_14)">
<path id="Vector" d="M9.98468 -2.08616e-07C7.1306 -2.08616e-07 0.101318 7.112 0.101318 9.99996C0.101318 12.8879 7.1306 20 9.98468 20C12.8388 20 19.8682 12.8877 19.8682 9.99996C19.8682 7.11213 12.8389 -2.08616e-07 9.98468 -2.08616e-07ZM8.44455 15.7183C7.24098 15.3864 4.00516 9.65936 4.33319 8.44162C4.66119 7.22383 10.3214 3.94987 11.5249 4.28174C12.7285 4.61357 15.9644 10.3406 15.6363 11.5584C15.3083 12.7761 9.64809 16.0501 8.44455 15.7183Z" fill="var(--fill-0, #818A96)"/>
</g>
<defs>
<clipPath id="clip0_0_14">
<rect width="20" height="20" fill="white"/>
</clipPath>
</defs>
</svg>
