<svg preserveAspectRatio="none" width="100%" height="100%" overflow="visible" style="display: block;" viewBox="0 0 20 20" fill="none" xmlns="http://www.w3.org/2000/svg">
<g id="Solana">
<path id="Vector" fill-rule="evenodd" clip-rule="evenodd" d="M5.34037 13.7159C5.38763 13.6649 5.44474 13.6239 5.50828 13.5954C5.57182 13.5669 5.64046 13.5515 5.71013 13.5501H17.328C17.3772 13.5507 17.425 13.5656 17.4659 13.5928C17.5069 13.6199 17.539 13.6583 17.5586 13.7033C17.5782 13.7482 17.5842 13.7979 17.5761 13.8462C17.568 13.8946 17.5461 13.9395 17.513 13.9757L15.0503 16.701C15.003 16.7519 14.9459 16.793 14.8824 16.8214C14.8189 16.8499 14.7502 16.8654 14.6806 16.8667H3.05524C3.00609 16.8661 2.95818 16.8512 2.91727 16.8241C2.87638 16.7969 2.84422 16.7585 2.8247 16.7135C2.80517 16.6686 2.79909 16.619 2.80718 16.5706C2.81529 16.5222 2.83722 16.4773 2.87036 16.4411L5.34037 13.7159ZM17.5241 11.4569C17.5572 11.493 17.5791 11.538 17.5871 11.5863C17.5954 11.6347 17.5892 11.6843 17.5697 11.7293C17.5502 11.7742 17.5179 11.8126 17.477 11.8398C17.4362 11.867 17.3883 11.8818 17.3391 11.8825L5.71752 11.8918C5.64787 11.8903 5.57921 11.8749 5.51567 11.8464C5.45214 11.8179 5.39502 11.7769 5.34777 11.7259L2.86666 9.00992C2.83353 8.97368 2.81159 8.92872 2.80349 8.8804C2.79538 8.83208 2.80146 8.78248 2.821 8.73752C2.84053 8.69248 2.87268 8.65416 2.91358 8.62696C2.95448 8.59976 3.00238 8.58496 3.05154 8.58424L14.6731 8.57504C14.7428 8.57648 14.8114 8.59184 14.875 8.6204C14.9386 8.64888 14.9957 8.68984 15.0429 8.74088L17.5241 11.4569ZM5.34037 3.76584C5.38763 3.71482 5.44474 3.67384 5.50828 3.64534C5.57182 3.61685 5.64046 3.60142 5.71013 3.60001L17.3354 3.60922C17.3846 3.60991 17.4326 3.62474 17.4734 3.65192C17.5143 3.67911 17.5465 3.71749 17.5659 3.76246C17.5855 3.80742 17.5916 3.85705 17.5835 3.90538C17.5754 3.9537 17.5534 3.99866 17.5203 4.03486L15.0503 6.75086C15.003 6.80188 14.9459 6.84287 14.8824 6.87137C14.8189 6.89986 14.7502 6.91527 14.6806 6.9167H3.05524C3.00609 6.916 2.95818 6.90118 2.91727 6.87399C2.87638 6.84681 2.84422 6.80842 2.8247 6.76346C2.80517 6.7185 2.79909 6.66887 2.80718 6.62054C2.81529 6.57222 2.83722 6.52725 2.87036 6.49106L5.34037 3.76584Z" fill="var(--fill-0, #818A96)"/>
</g>
</svg>
