<svg preserveAspectRatio="none" width="100%" height="100%" overflow="visible" style="display: block;" viewBox="0 0 20 20" fill="none" xmlns="http://www.w3.org/2000/svg">
<g id="Ethereum">
<path id="Vector" d="M9.83872 13.0613L9.83992 7.67754L4.67187 9.94536L9.83872 13.0613Z" fill="var(--fill-0, #95A8E6)"/>
<path id="Vector_2" d="M9.868 7.67754L9.8668 13.0626L15.0358 9.94536L9.868 7.67754Z" fill="var(--fill-0, #C3B5EC)"/>
<path id="Vector_3" d="M15.0305 9.9152L9.8668 1.43108L9.868 7.64975L15.0305 9.9152Z" fill="var(--fill-0, #D1F7F5)"/>
<path id="Vector_4" d="M9.86728 13.9419L9.8668 18.098L15.0402 10.9757L9.86728 13.9419Z" fill="var(--fill-0, #C2B3EC)"/>
<path id="Vector_5" d="M9.8388 18.0951L9.83928 13.941L4.66758 10.9757L9.8388 18.0951Z" fill="var(--fill-0, #E5CFC7)"/>
<path id="Vector_6" d="M4.67734 9.91528L9.84008 7.6498L9.83888 1.43438L4.67734 9.91528Z" fill="var(--fill-0, #E5CFC5)"/>
<path id="Vector_7" d="M9.8536 13.1L9.86368 13.0944L15.071 9.95416L15.0816 9.94784L9.86616 1.37804L9.85408 1.35999L9.84168 1.37804L4.62578 9.94784L9.84368 13.0946L9.8536 13.1ZM15.0303 9.9152L9.86784 7.64977L9.86688 1.4311L15.0303 9.9152ZM9.86784 7.6776L15.0357 9.94544L9.86688 13.0626L9.86784 7.6776ZM9.8388 13.0613L4.67196 9.94544L9.84 7.6776L9.8388 13.0613ZM4.67727 9.9152L9.8388 1.43436L9.84 7.64977L4.67727 9.9152Z" fill="var(--fill-0, #857F94)"/>
<path id="Vector_8" d="M4.57383 10.8922L9.8444 18.1483L9.85384 18.1601L9.86352 18.1483L15.1338 10.8922L9.85384 13.9198L4.57383 10.8922ZM9.83888 18.0953L4.66763 10.9758L9.83936 13.9411L9.83888 18.0953ZM9.86712 13.942L15.04 10.9758L9.86688 18.0981L9.86712 13.942Z" fill="var(--fill-0, #E5CFC7)"/>
</g>
</svg>
