<svg preserveAspectRatio="none" width="100%" height="100%" overflow="visible" style="display: block;" viewBox="0 0 16.2501 16.875" fill="none" xmlns="http://www.w3.org/2000/svg">
<g id="Mask group">
<mask id="mask0_0_41" style="mask-type:luminance" maskUnits="userSpaceOnUse" x="0" y="0" width="17" height="17">
<g id="Group">
<path id="Vector" d="M16.0069 10.4786C14.9216 14.9987 10.5125 17.7496 6.15879 16.6224C1.80688 15.4955 -0.842391 10.9171 0.243359 6.39729C1.32816 1.87666 5.73726 -0.874408 10.0897 0.252477C14.4431 1.37937 17.0923 5.95824 16.0069 10.4786Z" fill="var(--fill-0, white)"/>
<path id="Vector_2" d="M11.7086 7.23517C11.8703 6.11234 11.047 5.50876 9.92125 5.10612L10.2864 3.58512L9.39475 3.35442L9.03925 4.83537C8.80483 4.77466 8.56408 4.71745 8.32483 4.66074L8.68292 3.17003L7.79175 2.93932L7.42633 4.45982C7.23233 4.41396 7.04183 4.36864 6.857 4.32088L6.858 4.31609L5.62837 3.99725L5.39117 4.98614C5.39117 4.98614 6.05273 5.1436 6.03878 5.15329C6.39987 5.24688 6.46517 5.49507 6.45433 5.69179L6.03831 7.42459C6.06318 7.43109 6.09543 7.44059 6.13101 7.45542C6.10126 7.44775 6.06961 7.43942 6.03676 7.43125L5.45365 9.85859C5.40952 9.9725 5.29752 10.1435 5.04506 10.0786C5.054 10.092 4.39697 9.91059 4.39697 9.91059L3.95427 10.9704L5.11465 11.2708C5.33052 11.327 5.54206 11.3858 5.75038 11.4412L5.3814 12.9796L6.27205 13.2103L6.6375 11.6882C6.88075 11.7568 7.11692 11.82 7.34808 11.8797L6.98392 13.3946L7.87558 13.6253L8.24458 12.0898C9.76508 12.3885 10.9084 12.2681 11.3896 10.84C11.7774 9.69034 11.3703 9.02717 10.5703 8.59467C11.153 8.45517 11.5916 8.05709 11.7086 7.23517ZM9.67125 10.2015C9.39567 11.3513 7.53133 10.7298 6.92692 10.5739L7.41658 8.53575C8.021 8.69242 9.95917 9.0025 9.67125 10.2015ZM9.947 7.2185C9.69567 8.26434 8.14392 7.733 7.64058 7.60275L8.0845 5.75423C8.58792 5.88451 10.2088 6.12768 9.947 7.2185Z" fill="var(--fill-0, black)"/>
</g>
</mask>
<g mask="url(#mask0_0_41)">
<path id="Vector_3" d="M16.0069 10.4786C14.9216 14.9987 10.5125 17.7496 6.15879 16.6224C1.80688 15.4955 -0.842391 10.9171 0.243359 6.39729C1.32816 1.87666 5.73726 -0.874408 10.0897 0.252477C14.4431 1.37937 17.0923 5.95824 16.0069 10.4786Z" fill="var(--fill-0, #818A96)"/>
</g>
</g>
</svg>
