<svg preserveAspectRatio="none" width="100%" height="100%" overflow="visible" style="display: block;" viewBox="0 0 20 20" fill="none" xmlns="http://www.w3.org/2000/svg">
<g id="Group">
<path id="Vector" fill-rule="evenodd" clip-rule="evenodd" d="M20 10C20 4.47676 15.5232 0 10 0C4.47676 0 0 4.47676 0 10C0 15.5232 4.47676 20 10 20C15.5232 20 20 15.5232 20 10ZM13.5656 9.45197L13.5584 7.90389H13.564L12.2491 7.12985L9.99589 8.45838L7.75631 7.12985L6.44221 7.90389V9.45197L8.69541 10.7741V13.4247L10.0039 14.1915L11.3124 13.4247V10.7741L13.5656 9.45197ZM9.99669 3.16431L6.44141 5.26046L7.7499 6.0345L9.99669 4.70597L12.2499 6.0345L13.5584 5.26046L9.99669 3.16431ZM5.50321 12.6443L5.49599 10L4.1883 9.22681V13.4255L7.75 15.5145V13.9664L5.50321 12.6443ZM5.49599 8.89668V7.35582L6.8109 6.58178L5.49599 5.80774L4.1875 6.58178V8.12264L5.49599 8.89668ZM9.99679 5.80774L8.6883 6.58178L9.99679 7.35582L11.3117 6.58178L9.99679 5.80774ZM7.7499 11.3222L6.44141 10.5481V12.0962L7.7499 12.863V11.3222ZM9.99669 15.2949L8.6882 14.5209V16.0617L9.99669 16.8358L11.3116 16.0617V14.5209L9.99669 15.2949ZM14.4967 5.80774L13.1882 6.58178L14.4967 7.35582V8.89668L15.8116 8.12264V6.58178L14.4967 5.80774ZM14.5039 10L14.4967 12.6443L12.2507 13.9656V15.5137L15.8124 13.4247V9.22601L14.5039 10ZM13.5585 12.0962L12.25 12.863V11.3221L13.5585 10.5481V12.0962Z" fill="var(--fill-0, #818A96)"/>
</g>
</svg>
