<svg preserveAspectRatio="none" width="100%" height="100%" overflow="visible" style="display: block;" viewBox="0 0 20 20" fill="none" xmlns="http://www.w3.org/2000/svg">
<g id="Frame">
<path id="Vector" d="M5.80088 7.01778C6.10178 6.84583 6.48864 6.84583 6.83252 7.01778L9.23967 8.43625L10.8732 9.339L13.2373 10.7575C13.5382 10.9294 13.9251 10.9294 14.269 10.7575L16.1173 9.63992C16.4183 9.46792 16.6332 9.12408 16.6332 8.73717V6.58793C16.6332 6.24404 16.4613 5.90016 16.1173 5.68523L14.269 4.6106C13.9681 4.43866 13.5812 4.43866 13.2373 4.6106L11.389 5.72822C11.0881 5.90016 10.8732 6.24404 10.8732 6.63091V8.04943L9.23967 7.10375V5.64225C9.23967 5.29837 9.41167 4.95448 9.7555 4.73956L13.1943 2.71925C13.4953 2.54731 13.8821 2.54731 14.226 2.71925L17.7507 4.78254C18.0947 4.95448 18.2666 5.29837 18.2666 5.64225V9.68283C18.2666 10.0267 18.0947 10.3707 17.7507 10.5856L14.269 12.6058C13.9681 12.7778 13.5812 12.7778 13.2373 12.6058L10.8732 11.2303L9.23967 10.2847L6.87551 8.90917C6.57461 8.73717 6.18774 8.73717 5.84386 8.90917L3.99549 9.98375C3.6946 10.1557 3.47967 10.4996 3.47967 10.8864V13.0358C3.47967 13.3796 3.65161 13.7235 3.99549 13.9384L5.80088 15.013C6.10178 15.185 6.48864 15.185 6.83252 15.013L8.68092 13.9384C8.98175 13.7665 9.19675 13.4226 9.19675 13.0358V11.6602L10.8302 12.6058V14.0244C10.8302 14.3682 10.6583 14.7122 10.3143 14.9271L6.83252 16.9473C6.53162 17.1193 6.14476 17.1193 5.80088 16.9473L2.31907 14.9271C2.01818 14.7552 1.80324 14.4112 1.80324 14.0244V9.94075C1.80324 9.59692 1.97518 9.253 2.31907 9.03808L5.80088 7.01778Z" fill="var(--fill-0, #818A96)"/>
</g>
</svg>
