<svg preserveAspectRatio="none" width="100%" height="100%" overflow="visible" style="display: block;" viewBox="0 0 20 20" fill="none" xmlns="http://www.w3.org/2000/svg">
<g id="Frame">
<path id="Vector" fill-rule="evenodd" clip-rule="evenodd" d="M10.1904 1.27488C10.1468 1.25118 10.0984 1.23697 10.05 1.23697C10.0016 1.23697 9.95325 1.25118 9.90969 1.27488L2.40832 5.51659C2.32121 5.56398 2.26797 5.65403 2.26797 5.75355V14.2417C2.26797 14.3412 2.32121 14.4313 2.40832 14.4787L3.56148 15.1307L7.19469 5.36962C7.24308 5.23692 7.37375 5.15161 7.5141 5.15161H9.41606C9.53705 5.15161 9.61932 5.26536 9.58061 5.37436L5.53145 16.2447L6.31292 16.6866L10.5244 5.36962C10.5728 5.23692 10.7035 5.15161 10.8438 5.15161H12.7458C12.8619 5.15161 12.949 5.26536 12.9055 5.37436L8.28252 17.8003L9.90969 18.7204C9.95325 18.7441 10.0016 18.7583 10.05 18.7583C10.0984 18.7583 10.1468 18.7441 10.1904 18.7204L11.8324 17.7909L10.5727 14.4028C10.5436 14.3317 10.5436 14.2464 10.5727 14.1753L11.5648 11.5213C11.618 11.3744 11.8261 11.3744 11.8794 11.5166L13.8011 16.6764L14.5802 16.2354L12.2327 9.9336C12.2037 9.86251 12.2037 9.78194 12.2327 9.70611L13.2248 7.05208C13.2829 6.90516 13.491 6.90516 13.5442 7.05208L16.5495 15.1205L17.6918 14.4739C17.7789 14.4265 17.8321 14.3365 17.8321 14.237V5.75355C17.8321 5.65403 17.7789 5.56398 17.6918 5.51659L10.1904 1.27488ZM1.77433 15.5498L3.12189 16.3117L3.11975 16.3175L5.08947 17.4312L5.09159 17.4255L9.2757 19.7915C9.51284 19.9289 9.77902 19.9953 10.05 19.9953C10.3211 19.9953 10.5872 19.9242 10.8244 19.7915L18.3257 15.5498C18.8049 15.2796 19.1001 14.782 19.1001 14.237V5.75355C19.1001 5.21327 18.8049 4.7109 18.3257 4.44076L10.8244 0.203791C10.5824 0.07109 10.3162 0 10.05 0C9.78386 0 9.51284 0.07109 9.2757 0.203791L1.77433 4.4455C1.30005 4.71564 1 5.21327 1 5.75355V14.237C1 14.7772 1.29522 15.2796 1.77433 15.5498Z" fill="var(--fill-0, #818A96)"/>
</g>
</svg>
