<svg preserveAspectRatio="none" width="100%" height="100%" overflow="visible" style="display: block;" viewBox="0 0 13.7802 13.7804" fill="none" xmlns="http://www.w3.org/2000/svg">
<g id="Transfer Icon">
<path id="Fill 1" opacity="0.4" d="M7.20619 0.473502H10.6928C12.1367 0.473502 13.3067 1.60466 13.3067 3.00063V6.3714C13.3067 7.76738 12.1367 8.89853 10.6928 8.89853H7.20619C5.76225 8.89853 4.59224 7.76738 4.59224 6.3714V3.00063C4.59224 1.60466 5.76225 0.473502 7.20619 0.473502" stroke="var(--stroke-0, #1F2937)" stroke-width="0.947005"/>
<path id="Fill 7" d="M3.08745 4.88183H6.57403C8.01796 4.88183 9.18798 6.01298 9.18798 7.40896V10.7797C9.18798 12.1748 8.01796 13.3069 6.57403 13.3069H3.08745C1.64352 13.3069 0.473502 12.1748 0.473502 10.7797V7.40896C0.473502 6.01298 1.64352 4.88183 3.08745 4.88183" stroke="var(--stroke-0, #1F2937)" stroke-width="0.947005"/>
</g>
</svg>
