<svg preserveAspectRatio="none" width="100%" height="100%" overflow="visible" style="display: block;" viewBox="0 0 14.6975 14.697" fill="none" xmlns="http://www.w3.org/2000/svg">
<g id="Transfer Icon">
<path id="Fill 1" opacity="0.4" d="M10.1509 0.473502H12.4788C13.4429 0.473502 14.224 1.26128 14.224 2.23348V4.58099C14.224 5.55319 13.4429 6.34096 12.4788 6.34096H10.1509C9.18689 6.34096 8.40571 5.55319 8.40571 4.58099V2.23348C8.40571 1.26128 9.18689 0.473502 10.1509 0.473502" stroke="var(--stroke-0, #1D7AFC)" stroke-width="0.947005"/>
<path id="Fill 7" d="M2.21874 8.35603H4.54659C5.51065 8.35603 6.29182 9.1438 6.29182 10.116V12.4635C6.29182 13.4351 5.51065 14.2235 4.54659 14.2235H2.21874C1.25468 14.2235 0.473502 13.4351 0.473502 12.4635V10.116C0.473502 9.1438 1.25468 8.35603 2.21874 8.35603" stroke="var(--stroke-0, #1F2937)" stroke-width="0.947005"/>
<path id="Arrow 2" d="M12.5844 8.4381C12.5844 8.30734 12.4784 8.20135 12.3476 8.20135C12.2169 8.20136 12.1109 8.30736 12.1109 8.43811L12.3476 8.4381L12.5844 8.4381ZM8.62604 12.177C8.53358 12.2694 8.53358 12.4193 8.62604 12.5118L10.1327 14.0185C10.2252 14.1109 10.3751 14.1109 10.4675 14.0185C10.56 13.926 10.56 13.7761 10.4675 13.6837L9.12827 12.3444L10.4675 11.0051C10.56 10.9127 10.56 10.7628 10.4675 10.6703C10.3751 10.5778 10.2252 10.5778 10.1327 10.6703L8.62604 12.177ZM12.3476 8.4381L12.1109 8.43811C12.1109 9.33094 12.1104 10.0045 12.0563 10.522C12.002 11.041 11.8969 11.3601 11.7206 11.5712C11.5491 11.7767 11.2791 11.9162 10.8056 12.0003C10.3291 12.085 9.68249 12.1076 8.79345 12.1076L8.79345 12.3444L8.79345 12.5811C9.68009 12.5811 10.3656 12.5594 10.8884 12.4665C11.4143 12.3731 11.811 12.2018 12.0841 11.8747C12.3524 11.5532 12.47 11.1176 12.5272 10.5713C12.5845 10.0234 12.5844 9.32087 12.5844 8.4381L12.3476 8.4381Z" fill="var(--stroke-0, #1F2937)"/>
<path id="Arrow 3" d="M2.48933 6.44867C2.49175 6.5794 2.5997 6.68341 2.73043 6.68099C2.86116 6.67857 2.96518 6.57063 2.96276 6.4399L2.72604 6.44428L2.48933 6.44867ZM6.37791 2.63728C6.46864 2.54313 6.46587 2.39325 6.37172 2.30252L4.83746 0.823942C4.74331 0.73321 4.59344 0.73598 4.5027 0.83013C4.41197 0.924279 4.41474 1.07416 4.50889 1.16489L5.87268 2.47918L4.55839 3.84297C4.46766 3.93712 4.47043 4.08699 4.56458 4.17772C4.65873 4.26846 4.8086 4.26569 4.89934 4.17154L6.37791 2.63728ZM2.72604 6.44428L2.96276 6.4399C2.94623 5.54723 2.93425 4.87379 2.97884 4.35538C3.02356 3.83547 3.12274 3.51451 3.29509 3.30011C3.46279 3.09148 3.73012 2.94704 4.20197 2.85419C4.67687 2.76073 5.32293 2.72613 6.21181 2.7097L6.20744 2.47299L6.20306 2.23628C5.31658 2.25266 4.63156 2.28706 4.11054 2.38959C3.58648 2.49273 3.19306 2.67127 2.92604 3.00344C2.66367 3.32984 2.55416 3.76748 2.50708 4.3148C2.45987 4.86362 2.47299 5.56604 2.48933 6.44867L2.72604 6.44428Z" fill="var(--stroke-0, #1F2937)"/>
</g>
</svg>
