<svg preserveAspectRatio="none" width="100%" height="100%" overflow="visible" style="display: block;" viewBox="0 0 20 20" fill="none" xmlns="http://www.w3.org/2000/svg">
<g id="Frame">
<path id="Vector" d="M8.47426 1.66667C9.76811 1.66653 11.0352 2.03509 12.1271 2.72919C13.219 3.42328 14.0905 4.41416 14.6395 5.58574C15.1885 6.75733 15.3923 8.0611 15.2269 9.34432C15.0616 10.6275 14.534 11.8371 13.7059 12.8312L18.4012 17.5264C18.4826 17.6021 18.5422 17.6983 18.5735 17.805C18.6049 17.9116 18.6069 18.0247 18.5794 18.1325C18.5519 18.2402 18.4958 18.3384 18.4171 18.4169C18.3384 18.4955 18.2399 18.5513 18.1321 18.5785C18.0246 18.6061 17.9115 18.6042 17.805 18.573C17.6984 18.5417 17.6022 18.4824 17.5265 18.4011L12.8312 13.7059C11.991 14.4055 10.9947 14.8924 9.9266 15.1255C8.85845 15.3585 7.74988 15.331 6.69465 15.045C5.63943 14.7591 4.66859 14.2232 3.86426 13.4827C3.05993 12.7423 2.44577 11.819 2.07373 10.7909C1.7017 9.7629 1.58273 8.6604 1.72688 7.57668C1.87104 6.49295 2.27409 5.45989 2.90194 4.56486C3.52978 3.66984 4.36395 2.9392 5.33388 2.43473C6.30382 1.93026 7.38098 1.66682 8.47426 1.66667ZM2.90431 8.47433C2.90431 9.20578 3.04838 9.93006 3.3283 10.6058C3.60822 11.2816 4.0185 11.8956 4.53571 12.4128C5.05293 12.9301 5.66696 13.3403 6.34274 13.6202C7.01851 13.9002 7.74281 14.0442 8.47426 14.0442C9.20572 14.0442 9.93002 13.9002 10.6058 13.6202C11.2816 13.3403 11.8956 12.9301 12.4128 12.4128C12.93 11.8956 13.3403 11.2816 13.6202 10.6058C13.9001 9.93006 14.0442 9.20578 14.0442 8.47433C14.0442 6.9971 13.4574 5.58037 12.4128 4.53581C11.3682 3.49125 9.95151 2.90443 8.47426 2.90443C6.99702 2.90443 5.58028 3.49125 4.53571 4.53581C3.49114 5.58037 2.90431 6.9971 2.90431 8.47433Z" fill="var(--fill-0, #4B5563)"/>
</g>
</svg>
